<svg width="35" height="35" viewBox="0 0 35 35" fill="none" xmlns="http://www.w3.org/2000/svg">
<path d="M23.3334 5.83337H26.25C27.0236 5.83337 27.7655 6.14066 28.3124 6.68765C28.8594 7.23463 29.1667 7.97649 29.1667 8.75004V29.1667C29.1667 29.9403 28.8594 30.6821 28.3124 31.2291C27.7655 31.7761 27.0236 32.0834 26.25 32.0834H8.75004C7.97649 32.0834 7.23463 31.7761 6.68765 31.2291C6.14066 30.6821 5.83337 29.9403 5.83337 29.1667V8.75004C5.83337 7.97649 6.14066 7.23463 6.68765 6.68765C7.23463 6.14066 7.97649 5.83337 8.75004 5.83337H11.6667" stroke="white" stroke-width="2.5" stroke-linecap="round" stroke-linejoin="round"/>
<path d="M21.875 2.91663H13.125C12.3195 2.91663 11.6666 3.56954 11.6666 4.37496V7.29163C11.6666 8.09704 12.3195 8.74996 13.125 8.74996H21.875C22.6804 8.74996 23.3333 8.09704 23.3333 7.29163V4.37496C23.3333 3.56954 22.6804 2.91663 21.875 2.91663Z" stroke="white" stroke-width="2.5" stroke-linecap="round" stroke-linejoin="round"/>
</svg>
